<svg id="Layer_1" data-name="Layer 1" xmlns="http://www.w3.org/2000/svg" viewBox="0 0 198.05 283.46"><title>1ADB-11</title><path d="M174.78,0H23.27A23.29,23.29,0,0,0,0,23.27V260.2a23.29,23.29,0,0,0,23.27,23.27H174.78A23.29,23.29,0,0,0,198,260.2V23.27A23.29,23.29,0,0,0,174.78,0Zm20.55,260.2a20.57,20.57,0,0,1-20.55,20.55H23.27A20.57,20.57,0,0,1,2.72,260.2V23.27A20.57,20.57,0,0,1,23.27,2.72H174.78a20.57,20.57,0,0,1,20.55,20.55Z"/><path d="M89.71,26q-1.39,0-2.78,0c-.24,0-.3.08-.3.31q0,6.65,0,13.31a1.23,1.23,0,0,1,0,.24,2,2,0,0,1-.11-.19,2.47,2.47,0,0,1-.1-.26l-1-3.15-1.22-3.92c-.37-1.17-.74-2.34-1.09-3.52-.06-.2-.17-.25-.36-.25-1.31,0-2.62,0-3.94,0a.42.42,0,0,0-.49.35c-.31,1-.63,2-1,3l-2,6.19q-1,3.17-2,6.35c-.1.33-.17.66-.26,1H76.6c.17-.52.34-1,.51-1.56l1.34-4.23,1.37-4.28.73-2.26a.71.71,0,0,1,.1-.16.71.71,0,0,1,.09.15c.49,1.55,1,3.11,1.46,4.66.06.2,0,.25-.18.25-.56,0-1.13,0-1.69,0-.31,0-.43.11-.5.38-.22.77-.44,1.54-.7,2.3-.09.27,0,.3.22.3H89.69c.25,0,.34-.07.34-.33q0-7.17,0-14.34C90,26,90,26,89.71,26Z"/><path d="M117.55,31.23a4.93,4.93,0,0,0-2.77,3.71,5,5,0,0,0,.27,2.72c.11.3.1.32-.22.32h-1.6c-.61,0-.77-.13-.78-.72,0-1.1,0-2.2,0-3.3,0-.19.08-.26.27-.26h1.43c.19,0,.28-.05.27-.25q0-1.29,0-2.57c0-.19-.07-.26-.26-.26-.47,0-.94,0-1.41,0-.23,0-.32-.07-.31-.31,0-.55,0-1.1,0-1.65,0-.25-.08-.32-.33-.32h-2.73c-.38,0-.38,0-.38.39,0,3,0,5.91,0,8.86,0,.27-.07.38-.36.37-.57,0-1.14,0-1.72,0a2.12,2.12,0,0,1-2-1.46,2.17,2.17,0,0,1,.78-2.39,2.59,2.59,0,0,1,1.84-.45c.23,0,.31-.06.31-.3,0-.79,0-1.58,0-2.38,0-.24-.08-.3-.3-.32a4.9,4.9,0,0,0-2.06.2,5.11,5.11,0,0,0-3.29,6.8c.14.31.12.32-.22.32h-4.5c-.56,0-1.12,0-1.69,0a2,2,0,0,1-2-2,2.24,2.24,0,0,1,1.34-2.2,2.12,2.12,0,0,1,2.39.52,1.2,1.2,0,0,1,.12.18,1,1,0,0,1-.23.06c-.51,0-1,0-1.52,0a1.25,1.25,0,0,0-1.2,1.29,1.19,1.19,0,0,0,1.21,1.21h4.81c.2,0,.27-.08.32-.27a4.79,4.79,0,0,0-.25-2.93A5.22,5.22,0,0,0,94.13,31a5.16,5.16,0,0,0-2.84,7A4.75,4.75,0,0,0,95.72,41c3.26.05,6.52,0,9.79,0h14.2a5.46,5.46,0,0,0,2.36-.52,5.12,5.12,0,1,0-4.52-9.2ZM119.85,38a2.18,2.18,0,0,1-2.2-2.18,2.2,2.2,0,0,1,2.2-2.16,2.17,2.17,0,1,1,0,4.33Z"/></svg>