<?xml version="1.0" encoding="utf-8"?>
<!-- Generator: Adobe Illustrator 20.0.0, SVG Export Plug-In . SVG Version: 6.00 Build 0)  -->
<svg version="1.1" id="Layer_1" xmlns="http://www.w3.org/2000/svg" xmlns:xlink="http://www.w3.org/1999/xlink" x="0px" y="0px"
	 viewBox="0 0 158.81 270.53" style="enable-background:new 0 0 158.81 270.53;" xml:space="preserve">
	<style type="text/css">.st0{fill-rule:evenodd;clip-rule:evenodd;fill:#1A1A18;}
		.st1{fill:#1A1A18;}
		.st2{fill-rule:evenodd;clip-rule:evenodd;}
		.st3{fill-rule:evenodd;clip-rule:evenodd;fill:#1A1A18;}</style>
	<g>
		<g id="svg_1">
			<path id="svg_2" d="m146.91,270.53l-135.01,0c-6.56,0 -11.9,-5.34 -11.9,-11.9l0,-246.73c0,-6.56 5.34,-11.9 11.9,-11.9l135.01,0c6.56,0 11.9,5.34 11.9,11.9l0,246.73c0,6.57 -5.34,11.9 -11.9,11.9zm-135.01,-267.7c-5,0 -9.07,4.07 -9.07,9.07l0,246.73c0,5 4.07,9.07 9.07,9.07l135.01,0c5,0 9.07,-4.07 9.07,-9.07l0,-246.73c0,-5 -4.07,-9.07 -9.07,-9.07l-135.01,0z"/>
		</g>
		<g id="svg_3" transform="translate(0,240) scale(1,-1) ">
			<path id="svg_4" d="m83.17,34.27c2.83,1.43 4.77,4.36 4.77,7.74c0,4.79 -3.88,8.66 -8.67,8.66c-4.79,0 -8.66,-3.88 -8.66,-8.66c0,-3.38 1.94,-6.31 4.77,-7.74l0,-8.24c0,-2.14 1.75,-3.9 3.9,-3.9c2.14,0 3.9,1.75 3.9,3.9l0,8.24l-0.01,0z" class="st0"/>
			<path id="svg_5" d="m79.27,50.96c-4.93,0 -8.95,-4.01 -8.95,-8.95c0,-3.34 1.82,-6.36 4.77,-7.91l0,-8.07c0,-2.31 1.88,-4.18 4.18,-4.18s4.18,1.88 4.18,4.18l0,8.07c2.95,1.56 4.77,4.57 4.77,7.91c0,4.93 -4.02,8.95 -8.95,8.95zm0,-28.55c-1.99,0 -3.61,1.62 -3.61,3.61l0,8.42l-0.16,0.08c-2.84,1.44 -4.61,4.3 -4.61,7.49c0,4.62 3.76,8.38 8.38,8.38c4.62,0 8.38,-3.76 8.38,-8.38c0,-3.18 -1.77,-6.05 -4.61,-7.49l-0.16,-0.08l0,-8.42c0,-1.99 -1.62,-3.61 -3.61,-3.61z" class="st1"/>
		</g>
		<g stroke="null" id="svg_6">
			<g stroke="null" id="svg_55">
				<path stroke="null" id="svg_56" d="m106.90656,133.11359l1.35123,0c0.44678,0 0.76279,-0.08 0.94804,-0.23c0.18525,-0.15 0.28332,-0.37 0.28332,-0.64c0,-0.2 -0.05449,-0.37 -0.16346,-0.51c-0.10897,-0.14 -0.26153,-0.24 -0.43588,-0.28c-0.11987,-0.03 -0.32691,-0.04 -0.64293,-0.04l-1.32944,0l0,1.7l-0.0109,0zm-0.68651,2.51l0,-4.78l1.97237,0c0.34871,0 0.61023,0.02 0.79548,0.05c0.25063,0.04 0.46857,0.11 0.64293,0.22c0.17435,0.11 0.31601,0.26 0.41409,0.46c0.10897,0.2 0.15256,0.41 0.15256,0.65c0,0.41 -0.14166,0.75 -0.42498,1.03c-0.28332,0.28 -0.79548,0.42 -1.52559,0.42l-1.34034,0l0,1.95l-0.68651,0z" class="st1"/>
			</g>
			<g stroke="null" id="svg_53">
				<rect stroke="null" id="svg_54" height="4.78" width="0.68651" class="st1" y="130.83359" x="103.99665"/>
			</g>
			<g stroke="null" id="svg_7">
				<path stroke="null" fill="black" id="svg_8" d="m115.44984,170.99359l-72.35969,0l0,-43.85l72.35148,0l0,43.85l0.00821,0zm-71.89195,-0.57l71.42421,0l0,-42.71l-71.42421,0l0,42.71z" class="st1"/>
			</g>
			<g stroke="null" id="svg_9">
				<path stroke="null" id="svg_10" d="m70.70327,137.53359l6.2658,0l0.25063,0l0,0.23l0,18.03l0,0.23l-0.25063,0l-6.2658,0l-0.25063,0l0,-0.23l0,-18.03l0,-0.23l0.25063,0zm6.02607,0.46l-5.77543,0l0,17.58l5.77543,0l0,-17.58z" class="st2"/>
			</g>
			<g stroke="null" id="svg_11">
				<path stroke="null" id="svg_12" d="m82.01441,137.53359l6.2658,0l0.25063,0l0,0.23l0,18.03l0,0.23l-0.25063,0l-6.2658,0l-0.25063,0l0,-0.23l0,-18.03l0,-0.23l0.25063,0zm6.01517,0.46l-5.77543,0l0,17.58l5.77543,0l0,-17.58z" class="st2"/>
			</g>
			<g stroke="null" id="svg_13">
				<path stroke="null" id="svg_14" d="m93.31464,137.53359l6.2658,0l0.25063,0l0,0.23l0,18.03l0,0.23l-0.25063,0l-6.2658,0l-0.25063,0l0,-0.23l0,-18.03l0,-0.23l0.25063,0zm6.02607,0.46l-5.77543,0l0,17.58l5.77543,0l0,-17.58z" class="st2"/>
			</g>
			<g stroke="null" id="svg_15">
				<path stroke="null" id="svg_16" d="m48.0919,137.53359l6.2658,0l0.25063,0l0,0.23l0,18.03l0,0.23l-0.25063,0l-6.2658,0l-0.25063,0l0,-0.23l0,-18.03l0,-0.23l0.25063,0zm6.02607,0.46l-5.77543,0l0,17.58l5.77543,0l0,-17.58z" class="st2"/>
			</g>
			<g stroke="null" id="svg_17">
				<path stroke="null" id="svg_18" d="m59.40303,137.53359l6.2658,0l0.25063,0l0,0.23l0,18.03l0,0.23l-0.25063,0l-6.2658,0l-0.25063,0l0,-0.23l0,-18.03l0,-0.23l0.25063,0zm6.01517,0.46l-5.77543,0l0,17.58l5.77543,0l0,-17.58z" class="st2"/>
			</g>
			<g stroke="null" id="svg_19">
				<path stroke="null" id="svg_20" d="m52.1674,164.17359l-0.62113,0l0,-3.65c-0.15256,0.13 -0.34871,0.26 -0.58844,0.39c-0.23974,0.13 -0.45768,0.23 -0.65382,0.3l0,-0.55c0.34871,-0.15 0.65382,-0.33 0.91535,-0.55c0.26153,-0.21 0.44678,-0.42 0.55575,-0.62l0.40319,0l-0.0109,4.68l0,0z" class="st2"/>
			</g>
			<g stroke="null" id="svg_21">
				<path stroke="null" id="svg_22" d="m64.21953,163.62359l0,0.55l-3.35629,0c0,-0.14 0.02179,-0.27 0.07628,-0.4c0.08718,-0.21 0.21794,-0.42 0.41409,-0.62c0.18525,-0.2 0.45768,-0.44 0.81728,-0.71c0.55575,-0.42 0.92625,-0.75 1.1224,-0.99c0.19615,-0.24 0.29422,-0.47 0.29422,-0.69c0,-0.23 -0.08718,-0.42 -0.26153,-0.57c-0.17435,-0.16 -0.40319,-0.23 -0.69741,-0.23c-0.30512,0 -0.54485,0.08 -0.71921,0.25c-0.18525,0.17 -0.27243,0.39 -0.27243,0.69l-0.64293,-0.06c0.04359,-0.44 0.20704,-0.77 0.50126,-1c0.28332,-0.23 0.67562,-0.35 1.15509,-0.35c0.49037,0 0.87176,0.12 1.15509,0.37c0.28332,0.25 0.42498,0.56 0.42498,0.92c0,0.19 -0.04359,0.37 -0.11987,0.55c-0.08718,0.18 -0.21794,0.37 -0.41409,0.57c-0.19615,0.2 -0.51216,0.47 -0.95894,0.82c-0.3705,0.29 -0.61023,0.48 -0.71921,0.59c-0.10897,0.1 -0.19615,0.21 -0.26153,0.31l2.46273,0l0,0z" class="st2"/>
			</g>
			<g stroke="null" id="svg_23">
				<path stroke="null" id="svg_24" d="m72.17437,162.86359l0.62113,-0.08c0.07628,0.32 0.19615,0.56 0.3705,0.7c0.17435,0.14 0.3814,0.21 0.63203,0.21c0.29422,0 0.54485,-0.09 0.741,-0.28c0.20704,-0.19 0.30512,-0.42 0.30512,-0.69c0,-0.26 -0.09807,-0.48 -0.28332,-0.65c-0.18525,-0.17 -0.42498,-0.26 -0.71921,-0.26c-0.11987,0 -0.26153,0.02 -0.43588,0.06l0.06538,-0.5c0.04359,0 0.07628,0.01 0.09807,0.01c0.26153,0 0.50126,-0.06 0.71921,-0.19c0.21794,-0.13 0.31601,-0.32 0.31601,-0.59c0,-0.21 -0.07628,-0.38 -0.22884,-0.52c-0.15256,-0.14 -0.3596,-0.21 -0.59934,-0.21c-0.23974,0 -0.44678,0.07 -0.61023,0.21c-0.16346,0.14 -0.26153,0.35 -0.31601,0.63l-0.62113,-0.1c0.07628,-0.38 0.25063,-0.68 0.52306,-0.89c0.27243,-0.21 0.61023,-0.32 1.01343,-0.32c0.27243,0 0.53396,0.06 0.76279,0.16c0.22884,0.11 0.41409,0.26 0.53396,0.45c0.11987,0.19 0.18525,0.39 0.18525,0.6c0,0.2 -0.05449,0.38 -0.17435,0.55c-0.11987,0.17 -0.29422,0.3 -0.52306,0.39c0.30512,0.06 0.53396,0.2 0.69741,0.4c0.16346,0.2 0.25063,0.45 0.25063,0.75c0,0.41 -0.16346,0.75 -0.49037,1.04c-0.32691,0.28 -0.7301,0.42 -1.23137,0.42c-0.44678,0 -0.81728,-0.12 -1.1115,-0.37c-0.27243,-0.22 -0.44678,-0.54 -0.49037,-0.93" class="st2"/>
			</g>
			<g stroke="null" id="svg_25">
				<path stroke="null" id="svg_26" d="m85.59953,162.43359l0,-2.1l-1.59097,2.1l1.59097,0zm0,1.65l0,-1.12l-2.2012,0l0,-0.52l2.32107,-3.02l0.51216,0l0,3.02l0.68651,0l0,0.52l-0.68651,0l0,1.12l-0.63203,0z" class="st2"/>
			</g>
			<g stroke="null" id="svg_27">
				<path stroke="null" id="svg_28" d="m94.90561,162.85359l0.65382,-0.05c0.04359,0.29 0.16346,0.51 0.33781,0.66c0.17435,0.15 0.39229,0.22 0.64293,0.22c0.30512,0 0.55575,-0.1 0.76279,-0.31c0.20704,-0.21 0.31601,-0.48 0.31601,-0.83c0,-0.33 -0.09807,-0.58 -0.30512,-0.77c-0.19615,-0.19 -0.45768,-0.28 -0.78459,-0.28c-0.19615,0 -0.3814,0.04 -0.54485,0.13c-0.16346,0.08 -0.28332,0.19 -0.3814,0.33l-0.58844,-0.07l0.49037,-2.4l2.52811,0l0,0.55l-2.02685,0l-0.27243,1.25c0.30512,-0.2 0.62113,-0.29 0.95894,-0.29c0.44678,0 0.81728,0.14 1.1224,0.42c0.30512,0.28 0.45768,0.64 0.45768,1.09c0,0.42 -0.13076,0.79 -0.40319,1.09c-0.32691,0.38 -0.77369,0.57 -1.34034,0.57c-0.45768,0 -0.83907,-0.12 -1.13329,-0.36c-0.28332,-0.24 -0.44678,-0.55 -0.49037,-0.95" class="st2"/>
			</g>
			<g stroke="null" id="svg_29">
				<path stroke="null" id="svg_30" d="m104.62578,137.53359l6.2658,0l0.25063,0l0,0.23l0,18.03l0,0.23l-0.25063,0l-6.2658,0l-0.25063,0l0,-0.23l0,-18.03l0,-0.23l0.25063,0zm6.02607,0.46l-5.77543,0l0,17.58l5.77543,0l0,-17.58z" class="st2"/>
			</g>
			<g stroke="null" id="svg_31">
				<path stroke="null" id="svg_32" d="m106.90326,162.50359c0,0.2 0.04359,0.39 0.14166,0.57c0.08718,0.18 0.21794,0.32 0.3814,0.41c0.16346,0.09 0.33781,0.14 0.51216,0.14c0.26153,0 0.49037,-0.1 0.67562,-0.29c0.18525,-0.2 0.28332,-0.46 0.28332,-0.8c0,-0.32 -0.09807,-0.58 -0.28332,-0.76c-0.18525,-0.19 -0.42498,-0.28 -0.70831,-0.28c-0.28332,0 -0.52306,0.09 -0.71921,0.28c-0.18525,0.19 -0.28332,0.43 -0.28332,0.73m2.54991,-2.01l-0.62113,0.04c-0.05449,-0.22 -0.13076,-0.39 -0.23974,-0.49c-0.16346,-0.16 -0.3814,-0.24 -0.62113,-0.24c-0.19615,0 -0.3705,0.05 -0.52306,0.15c-0.19615,0.13 -0.34871,0.32 -0.46857,0.58c-0.10897,0.25 -0.17435,0.61 -0.17435,1.08c0.15256,-0.21 0.33781,-0.37 0.55575,-0.47c0.21794,-0.1 0.44678,-0.15 0.68651,-0.15c0.41409,0 0.77369,0.14 1.06791,0.42c0.29422,0.28 0.43588,0.64 0.43588,1.09c0,0.29 -0.06538,0.56 -0.20704,0.82c-0.14166,0.25 -0.32691,0.44 -0.56665,0.58c-0.23974,0.13 -0.51216,0.2 -0.81728,0.2c-0.52306,0 -0.94804,-0.18 -1.27495,-0.53c-0.32691,-0.35 -0.49037,-0.93 -0.49037,-1.74c0,-0.9 0.18525,-1.56 0.54485,-1.97c0.31601,-0.36 0.741,-0.53 1.27495,-0.53c0.40319,0 0.7301,0.1 0.98073,0.31c0.25063,0.21 0.40319,0.49 0.45768,0.85z" class="st2"/>
			</g>
			<g stroke="null" id="svg_33">
				<rect stroke="null" id="svg_34" height="5.3" width="5.77543" class="st3" y="137.99359" x="48.34253"/>
			</g>
			<g stroke="null" id="svg_35">
				<rect stroke="null" id="svg_36" height="5.3" width="5.77543" class="st3" y="137.99359" x="59.65367"/>
			</g>
			<g stroke="null" id="svg_37">
				<rect stroke="null" id="svg_38" height="5.3" width="5.77543" class="st3" y="137.99359" x="70.9539"/>
			</g>
			<g stroke="null" id="svg_39">
				<rect stroke="null" id="svg_40" height="5.3" width="5.77543" class="st3" y="137.99359" x="82.26504"/>
			</g>
			<g stroke="null" id="svg_41">
				<rect stroke="null" id="svg_42" height="5.3" width="5.77543" class="st3" y="137.99359" x="93.56527"/>
			</g>
			<g stroke="null" id="svg_43">
				<rect stroke="null" id="svg_44" height="5.3" width="5.77543" class="st3" y="137.99359" x="104.87641"/>
			</g>
			<g stroke="null" id="svg_45">
				<path stroke="null" id="svg_46" d="m115.44984,170.99359l-72.35969,0l0,-43.85l72.35148,0l0,43.85l0.00821,0zm-71.89195,-0.57l71.42421,0l0,-42.71l-71.42421,0l0,42.71z" class="st1"/>
			</g>
			<g stroke="null" id="svg_47">
				<path stroke="null" id="svg_48" d="m48.94187,133.28359c0,0.58 0.16346,1.03 0.50126,1.36c0.33781,0.33 0.76279,0.5 1.27495,0.5c0.52306,0 0.94804,-0.17 1.28585,-0.5c0.33781,-0.33 0.50126,-0.81 0.50126,-1.42c0,-0.39 -0.07628,-0.73 -0.21794,-1.02c-0.14166,-0.29 -0.34871,-0.51 -0.63203,-0.67c-0.27243,-0.16 -0.58844,-0.24 -0.92625,-0.24c-0.49037,0 -0.90445,0.15 -1.26406,0.46c-0.34871,0.3 -0.52306,0.81 -0.52306,1.53m-0.70831,-0.01c0,-0.79 0.22884,-1.41 0.69741,-1.86c0.46857,-0.45 1.06791,-0.67 1.79801,-0.67c0.47947,0 0.91535,0.11 1.29675,0.32c0.3814,0.21 0.67562,0.5 0.88266,0.88c0.20704,0.38 0.30512,0.8 0.30512,1.28c0,0.48 -0.10897,0.92 -0.31601,1.3c-0.21794,0.38 -0.51216,0.67 -0.90445,0.87c-0.39229,0.2 -0.81728,0.3 -1.26406,0.3c-0.49037,0 -0.92625,-0.11 -1.31854,-0.33c-0.3814,-0.22 -0.67562,-0.51 -0.88266,-0.89c-0.19615,-0.39 -0.29422,-0.78 -0.29422,-1.2z" class="st1"/>
			</g>
			<g stroke="null" id="svg_49">
				<polygon stroke="null" id="svg_50" points="54.09617233276367,135.59359741210938 54.09617233276367,130.8135986328125 54.804481506347656,130.8135986328125 57.53963851928711,134.57359313964844 57.53963851928711,130.8135986328125 58.2043571472168,130.8135986328125 58.2043571472168,135.59359741210938 57.49605178833008,135.59359741210938 54.76089096069336,131.84359741210938 54.76089096069336,135.59359741210938 " class="st1"/>
			</g>
			<g stroke="null" id="svg_51">
				<path stroke="null" id="svg_52" d="m99.63823,135.06359l1.1115,0c0.34871,0 0.61023,-0.03 0.80638,-0.09c0.19615,-0.06 0.34871,-0.14 0.46857,-0.25c0.16346,-0.15 0.29422,-0.35 0.3814,-0.61c0.08718,-0.25 0.14166,-0.56 0.14166,-0.92c0,-0.5 -0.08718,-0.89 -0.27243,-1.16c-0.17435,-0.27 -0.39229,-0.45 -0.65382,-0.54c-0.18525,-0.07 -0.47947,-0.1 -0.89356,-0.1l-1.0897,0l0,3.67zm-0.69741,0.56l0,-4.78l1.79801,0c0.40319,0 0.71921,0.02 0.92625,0.07c0.29422,0.06 0.55575,0.18 0.76279,0.34c0.27243,0.21 0.47947,0.49 0.62113,0.82c0.14166,0.33 0.20704,0.71 0.20704,1.14c0,0.36 -0.04359,0.68 -0.14166,0.97c-0.08718,0.28 -0.20704,0.51 -0.3596,0.7c-0.14166,0.18 -0.30512,0.33 -0.47947,0.43c-0.17435,0.11 -0.3814,0.19 -0.62113,0.24c-0.23974,0.05 -0.52306,0.08 -0.83907,0.08l-1.87429,0l0,-0.01z" class="st1"/>
			</g>
		</g>
	</g>
</svg>
