<?xml version="1.0" encoding="utf-8"?>
<!-- Generator: Adobe Illustrator 20.0.0, SVG Export Plug-In . SVG Version: 6.00 Build 0)  -->
<svg version="1.1" id="Layer_1" xmlns="http://www.w3.org/2000/svg" xmlns:xlink="http://www.w3.org/1999/xlink" x="0px" y="0px"
	 viewBox="0 0 114.27 285.64" style="enable-background:new 0 0 114.27 285.64;" xml:space="preserve" xmlns:pulse="-">
<style type="text/css">
	.st0{fill-rule:evenodd;clip-rule:evenodd;}
	.st1{fill-rule:evenodd;clip-rule:evenodd;}
	.st2{fill:#1A1A18;}
</style>
<g>
	<circle class="st0" cx="57.14" cy="115.94" r="30.51"/>
</g>
<g>
	<path d="M57.14,147.16c-17.21,0-31.21-14-31.21-31.21s14-31.21,31.21-31.21c17.21,0,31.22,14,31.22,31.21
		S74.35,147.16,57.14,147.16z M57.14,86.15c-16.43,0-29.8,13.37-29.8,29.8s13.37,29.8,29.8,29.8s29.8-13.37,29.8-29.8
		S73.57,86.15,57.14,86.15z"/>
</g>
<g>
	<circle pulse:initial="true" class="st1" cx="57.14" cy="115.94" r="30.51"/>
</g>
<g>
	<path d="M57.14,147.16c-17.21,0-31.21-14-31.21-31.21s14-31.21,31.21-31.21c17.21,0,31.22,14,31.22,31.21
		S74.35,147.16,57.14,147.16z M57.14,86.15c-16.43,0-29.8,13.37-29.8,29.8s13.37,29.8,29.8,29.8s29.8-13.37,29.8-29.8
		S73.57,86.15,57.14,86.15z"/>
</g>
<path class="st2" d="M105.61,7.7C75.33-2.56,42.66-2.54,8.5,7.76C3.02,9.41,0,12.86,0,17.47v251c0,12.66,26.94,17.17,52.16,17.17
	c24.01,0,62.11-4.66,62.11-17.17v-251C114.27,12.17,110.41,7.84,105.61,7.7z M9.32,10.47C26.16,5.4,42.62,2.86,58.6,2.86
	c15.96,0,31.44,2.53,46.31,7.6l0.22,0.08h0.23c3.35,0,6.07,3.11,6.07,6.93v174.98c-36.04,10.77-72.56,10.87-108.6,0.3V17.47
	C2.83,13.3,6.36,11.36,9.32,10.47z M52.16,282.8c-29.5,0-49.32-5.76-49.32-14.34v-74.24c17.85,5.19,35.82,7.8,53.79,7.8
	c18.31,0,36.62-2.71,54.81-8.1v74.54C111.44,276.1,83.74,282.8,52.16,282.8z"/>
</svg>
