<?xml version="1.0" encoding="utf-8"?>
<!-- Generator: Adobe Illustrator 20.0.0, SVG Export Plug-In . SVG Version: 6.00 Build 0)  -->
<svg version="1.1" id="Layer_1_xA0_Image_1_" xmlns="http://www.w3.org/2000/svg" xmlns:xlink="http://www.w3.org/1999/xlink"
	 x="0px" y="0px" viewBox="0 0 221.65 83.49" style="enable-background:new 0 0 221.65 83.49;" xml:space="preserve">
<path d="M0,83.49c0.36-1.42,0.66-2.86,1.1-4.26c2.89-9.09,5.8-18.17,8.71-27.25c2.84-8.85,5.71-17.7,8.55-26.55
	c1.38-4.29,2.75-8.59,4.06-12.9c0.34-1.12,0.85-1.54,2.09-1.52c5.6,0.08,11.2,0.05,16.8,0.02c0.83,0,1.28,0.19,1.54,1.06
	c1.52,5.04,3.11,10.07,4.67,15.1c1.74,5.6,3.47,11.21,5.2,16.81c1.39,4.5,2.78,9,4.17,13.5c0.12,0.38,0.25,0.76,0.41,1.12
	c0.13,0.29,0.32,0.56,0.48,0.83c0.07-0.34,0.2-0.68,0.2-1.01c0-19.04-0.01-38.08-0.05-57.11c0-0.97,0.23-1.33,1.26-1.32
	c3.96,0.05,7.92,0.05,11.88,0c1.07-0.01,1.35,0.33,1.35,1.37c-0.03,20.52-0.03,41.04,0,61.55c0,1.14-0.37,1.42-1.44,1.42
	c-14.68-0.03-29.36-0.03-44.04-0.01c-1.03,0-1.31-0.14-0.94-1.28c1.09-3.25,2.04-6.55,2.98-9.86c0.33-1.16,0.82-1.69,2.15-1.62
	c2.39,0.14,4.8,0.02,7.2,0.05c0.84,0.01,1.03-0.23,0.76-1.07c-2.1-6.66-4.16-13.33-6.25-20c-0.07-0.23-0.26-0.43-0.39-0.64
	c-0.15,0.22-0.35,0.43-0.43,0.67c-1.05,3.23-2.08,6.46-3.11,9.69c-1.95,6.12-3.92,12.24-5.86,18.36c-1.92,6.05-3.82,12.1-5.73,18.15
	c-0.71,2.24-1.45,4.46-2.18,6.7C10.08,83.49,5.04,83.49,0,83.49z"/>
<path d="M148.93,64.36c-3.48,0-6.96-0.01-10.44,0c-13.92,0.03-27.84,0.24-41.75,0.01c-8.77-0.14-15.24-4.66-18.92-12.53
	C72.27,40,77.84,26.49,89.95,21.62c10.89-4.38,24.19,1.44,28.37,12.37c1.57,4.1,2.12,8.25,1.07,12.57c-0.2,0.81-0.52,1.15-1.36,1.15
	c-6.84-0.02-13.68,0.01-20.52-0.03c-2.97-0.02-5.1-2.24-5.16-5.2c-0.07-2.98,2.14-5.42,5.14-5.55c2.16-0.09,4.32-0.01,6.48-0.04
	c0.32,0,0.64-0.18,0.97-0.27c-0.17-0.26-0.3-0.55-0.51-0.77c-2.74-2.88-6.72-3.74-10.21-2.22c-3.67,1.6-5.98,5.41-5.71,9.43
	c0.31,4.74,3.65,8.1,8.52,8.42c2.39,0.16,4.8,0.12,7.19,0.12c6.4,0.01,12.8,0.01,19.2,0c1.45,0,1.51-0.04,0.92-1.38
	c-5.28-11.96,2.14-25.33,14.02-29.17c2.84-0.92,5.78-1.18,8.77-0.85c0.92,0.1,1.3,0.38,1.28,1.39c-0.07,3.4-0.06,6.8,0,10.2
	c0.02,1.02-0.33,1.35-1.31,1.28c-2.81-0.2-5.49,0.14-7.84,1.93c-3.16,2.41-4.54,6.61-3.31,10.27c1.27,3.77,4.61,6.22,8.61,6.27
	c2.44,0.03,4.88-0.06,7.32,0.04c1.26,0.05,1.54-0.42,1.54-1.59c-0.04-12.68-0.02-25.36-0.02-38.03c0-1.66,0-1.66,1.63-1.66
	c3.88,0,7.76,0.02,11.64-0.02c1.03-0.01,1.42,0.31,1.39,1.38c-0.07,2.36,0.01,4.72-0.04,7.08c-0.02,1.01,0.36,1.34,1.34,1.32
	c2-0.05,4,0.02,6-0.04c0.85-0.02,1.14,0.28,1.13,1.1c-0.02,3.68-0.02,7.36,0,11.04c0.01,0.86-0.38,1.09-1.17,1.08
	c-2.04-0.04-4.08,0.01-6.12-0.03c-0.82-0.02-1.17,0.28-1.17,1.1c0.02,4.72-0.02,9.44,0.05,14.16c0.04,2.55,0.72,3.09,3.31,3.09
	c2.28,0,4.56,0.01,6.84,0c1.35,0,1.41-0.07,0.93-1.36c-1.4-3.79-1.89-7.65-1.14-11.66c1.35-7.25,5.25-12.68,11.83-15.92
	c11.74-5.79,25.25-0.55,30.26,11.54c4.3,10.37-0.71,23.1-10.96,27.92c-3.2,1.5-6.52,2.26-10.07,2.25
	c-16.72-0.04-33.43-0.02-50.15-0.02C148.93,64.32,148.93,64.34,148.93,64.36z M199.69,51.55c5.17,0.01,9.26-4.09,9.26-9.28
	c0-5.17-4.11-9.31-9.25-9.32c-5.1-0.01-9.33,4.17-9.38,9.26C190.27,47.36,194.47,51.54,199.69,51.55z"/>
</svg>
