<?xml version="1.0" encoding="utf-8"?>
<!-- Generator: Adobe Illustrator 20.0.0, SVG Export Plug-In . SVG Version: 6.00 Build 0)  -->
<svg version="1.1" id="Layer_1" xmlns="http://www.w3.org/2000/svg" xmlns:xlink="http://www.w3.org/1999/xlink" x="0px" y="0px"
	 viewBox="0 0 171.6 471.4" style="enable-background:new 0 0 171.6 471.4;" xml:space="preserve">
<style type="text/css">
	.st0{fill-rule:evenodd;clip-rule:evenodd;fill:#1A1A18;}
</style>
<g>
	<path d="M110.47,162.79c-0.06-0.14-0.14-0.26-0.23-0.36c-0.09-0.1-0.19-0.19-0.31-0.27c-0.12-0.07-0.24-0.13-0.38-0.17
		c-0.31-0.09-0.7-0.07-1.01,0.05c-0.18,0.07-0.35,0.18-0.5,0.32c-0.15,0.14-0.26,0.33-0.33,0.57c-0.08,0.25-0.12,0.55-0.12,0.9
		c0,0.28,0.04,0.53,0.11,0.74c0.07,0.21,0.18,0.4,0.33,0.55c0.14,0.15,0.31,0.27,0.49,0.35c0.18,0.08,0.38,0.11,0.6,0.11
		c0.22,0,0.43-0.04,0.61-0.12c0.18-0.08,0.35-0.2,0.49-0.35l0.13-0.14l-0.01-0.01c0.09-0.12,0.16-0.27,0.21-0.42
		c0.07-0.23,0.11-0.49,0.11-0.79c0-0.19-0.02-0.37-0.05-0.53C110.58,163.08,110.53,162.93,110.47,162.79z"/>
	<path d="M171.34,457.4l-0.03-0.15c-0.04-0.26-0.06-0.56-0.09-0.85c-0.01-0.18-0.03-0.36-0.05-0.6l-0.08-0.53
		c-0.04-0.27-0.09-0.54-0.14-0.83c-0.05-0.27-0.1-0.56-0.16-0.85c-0.32-1.78-0.65-3.54-0.98-5.22l-0.49-2.9l0.04,0.67
		c-1.94-9.34-4.11-17.04-6.47-22.89c-2.55-6.33-5.41-10.72-8.5-13.05c4.03-2.59,7.45-5.71,10.15-9.27
		c2.98-3.92,5.18-8.48,6.54-13.56l0.07-0.25c0.12-0.43,0.21-0.77,0.21-1.33V52.6c0-16.06-7.61-29.34-22.01-38.42
		C134.74,4.97,113.89,0.2,87.38,0.01L85.8,0l-1.58,0.01C57.71,0.2,36.85,4.97,22.23,14.18C7.83,23.25,0.22,36.54,0.22,52.6l0,333.2
		c0,0.55,0.09,0.9,0.21,1.33l0.06,0.22c1.36,5.09,3.57,9.66,6.56,13.59c2.71,3.56,6.12,6.68,10.15,9.27
		c-3.09,2.33-5.95,6.72-8.5,13.05c-2.35,5.83-4.51,13.47-6.44,22.74l0.05-0.79l-0.53,3.17c-0.33,1.69-0.66,3.45-0.98,5.22
		c-0.16,0.81-0.25,1.56-0.33,2.21c-0.06,0.48-0.11,0.97-0.19,1.44l-0.03,0.19c-0.38,3.04-0.33,5.65,0.15,7.74
		c0.49,2.18,1.44,3.76,2.8,4.69c2.38,1.62,20.68,1.56,27.57,1.54h110.06c0.94,0,2.09,0.01,3.39,0.01c8.2,0,22.12-0.15,24.18-1.54
		c1.37-0.93,2.31-2.5,2.8-4.69C171.68,463.08,171.72,460.47,171.34,457.4z M38.2,418.27c0.31,0.07,0.62,0.14,0.91,0.21l0.15,0.04
		c0.36,0.1,0.69,0.2,1.01,0.31c0.32,0.11,0.65,0.24,0.99,0.38c0.28,0.11,0.6,0.25,0.95,0.42c0.26,0.17,0.79,0.53,1.42,0.96
		c1.99,1.35,4.72,3.21,5.7,3.62c0.6,0.25,1.14,0.17,1.59-0.24c8.75,2.51,21.5,3.96,35,3.97c0.09,0,0.18,0,0.27,0
		c13.42,0,26.01-1.42,34.6-3.89c0.43,0.34,0.94,0.4,1.49,0.16c0.99-0.42,3.72-2.27,5.72-3.64c0.61-0.42,1.14-0.77,1.38-0.94
		c0.39-0.18,0.7-0.32,0.97-0.43c0.36-0.15,0.68-0.27,0.99-0.38c0.32-0.11,0.65-0.21,1.01-0.31l0.07-0.02
		c0.32-0.08,0.65-0.16,0.99-0.23l0.11-0.02c0.73-0.15,1.43-0.31,2.08-0.46c0.7-0.17,1.42-0.34,2.14-0.53l0.34-0.09
		c1.49,1.55,2.75,4.52,3.76,8.84c1.25,5.38,2.11,12.94,2.55,22.47c0,0.92-0.35,1.39-1.21,1.64c-1.05,0.3-2.76,0.29-4.92,0.29H33.35
		c-2.16,0.01-3.87,0.02-4.92-0.29c-0.86-0.25-1.21-0.72-1.21-1.63c0.44-9.54,1.29-17.1,2.55-22.48c1-4.32,2.27-7.29,3.76-8.84
		l0.35,0.09c0.71,0.19,1.43,0.37,2.14,0.53c0.63,0.15,1.31,0.3,2.01,0.45l0,0L38.2,418.27z M115.46,165.49v0.86h-3.33v-5.17h0.93
		v4.31H115.46z M84.97,152.94c5.33,0,9.67,4.34,9.67,9.67s-4.34,9.67-9.67,9.67c-5.33,0-9.67-4.34-9.67-9.67
		S79.64,152.94,84.97,152.94z M84.97,137.53c-5.33,0-9.67-4.34-9.67-9.67s4.34-9.67,9.67-9.67c5.33,0,9.67,4.34,9.67,9.67
		S90.3,137.53,84.97,137.53z M84.97,96.39c-9.71,0-17.61-7.9-17.61-17.61s7.9-17.61,17.61-17.61c9.71,0,17.61,7.9,17.61,17.61
		S94.68,96.39,84.97,96.39z M110.92,165.69l-0.02,0.02c-0.15,0.16-0.33,0.29-0.52,0.4c-0.2,0.11-0.4,0.19-0.61,0.24
		c-0.43,0.11-0.92,0.1-1.34-0.01c-0.21-0.06-0.42-0.15-0.62-0.27c-0.19-0.12-0.36-0.26-0.51-0.42c-0.15-0.16-0.27-0.35-0.37-0.55
		c-0.1-0.2-0.17-0.41-0.22-0.62s-0.07-0.43-0.07-0.66c0-0.42,0.06-0.8,0.17-1.13c0.12-0.33,0.29-0.63,0.52-0.87s0.5-0.43,0.8-0.55
		c0.3-0.12,0.63-0.18,0.99-0.18c0.23,0,0.46,0.03,0.68,0.09c0.21,0.06,0.42,0.14,0.61,0.26c0.19,0.11,0.36,0.25,0.51,0.41
		c0.15,0.16,0.27,0.34,0.37,0.55c0.1,0.21,0.18,0.42,0.23,0.65c0.05,0.23,0.08,0.47,0.08,0.72c0,0.52-0.11,0.98-0.32,1.39
		C111.19,165.36,111.06,165.54,110.92,165.69z M61.86,197.11c0-4.13,3.36-7.48,7.48-7.48h31.26c4.13,0,7.48,3.36,7.48,7.48
		s-3.36,7.48-7.48,7.48H69.34C65.21,204.59,61.86,201.24,61.86,197.11z M104.6,166.35h-0.86l-2-5.17h1.01l1.42,3.99l1.48-3.99h0.96
		L104.6,166.35z M111.16,325.31H58.78c-0.96,0-1.73-0.78-1.73-1.73c0-0.96,0.78-1.73,1.73-1.73h52.38c0.96,0,1.73,0.78,1.73,1.73
		C112.89,324.53,112.11,325.31,111.16,325.31z M111.44,313.94H58.5c-0.96,0-1.73-0.78-1.73-1.73c0-0.96,0.78-1.73,1.73-1.73h52.94
		c0.96,0,1.73,0.78,1.73,1.73C113.17,313.16,112.39,313.94,111.44,313.94z M111.78,302.56H58.15c-0.96,0-1.73-0.78-1.73-1.73
		s0.78-1.73,1.73-1.73h53.63c0.96,0,1.73,0.78,1.73,1.73S112.74,302.56,111.78,302.56z M59.35,344.03h51.24
		c0.96,0,1.73,0.78,1.73,1.73s-0.78,1.73-1.73,1.73H59.35c-0.96,0-1.73-0.78-1.73-1.73S58.39,344.03,59.35,344.03z M110.87,336.4
		H59.06c-0.96,0-1.73-0.78-1.73-1.73s0.78-1.73,1.73-1.73h51.81c0.96,0,1.73,0.78,1.73,1.73S111.83,336.4,110.87,336.4z M129.43,417
		c-0.35,0.14-0.71,0.3-1.12,0.49l-0.16,0.09c-0.46,0.3-0.95,0.63-1.51,1.02c-1.27,0.87-2.99,2.03-4.16,2.76l2.25-347.84v-0.05
		l0-0.14c0-0.16,0-0.33,0-0.49c-0.09-5.81-1.86-10.86-5.26-15.01c-0.08-0.1-0.17-0.2-0.25-0.31c-0.09-0.1-0.17-0.2-0.26-0.3
		c-0.09-0.1-0.17-0.2-0.26-0.3c-0.09-0.1-0.18-0.19-0.27-0.29c-0.09-0.1-0.18-0.19-0.27-0.29c-0.09-0.1-0.18-0.19-0.28-0.28
		c-0.09-0.09-0.19-0.19-0.28-0.28l-0.29-0.27c-0.1-0.09-0.19-0.18-0.29-0.27c-0.1-0.09-0.2-0.18-0.3-0.27
		c-0.1-0.09-0.2-0.18-0.3-0.26c-11.82-10.18-33.51-11.17-47.92-6.93l-1.98,0.64l-1.94,0.73c-0.13,0.05-0.25,0.1-0.38,0.16
		l-1.87,0.83c-0.12,0.06-0.25,0.12-0.37,0.18c-0.12,0.06-0.24,0.12-0.36,0.18l-0.36,0.18c-0.12,0.06-0.24,0.12-0.36,0.19l-0.71,0.39
		c-0.12,0.07-0.23,0.13-0.35,0.2l-0.35,0.21c-0.12,0.07-0.23,0.14-0.35,0.21l-0.41,0.26v0c-0.09,0.06-0.19,0.12-0.28,0.18
		c-0.11,0.07-0.23,0.15-0.34,0.22c-0.11,0.07-0.23,0.15-0.34,0.23c-0.11,0.08-0.22,0.15-0.33,0.23c-0.11,0.08-0.22,0.15-0.33,0.23
		s-0.22,0.16-0.32,0.24c-0.11,0.08-0.22,0.16-0.32,0.24c-0.11,0.08-0.21,0.16-0.32,0.25c-0.1,0.08-0.21,0.17-0.31,0.25
		c-0.1,0.08-0.21,0.17-0.31,0.25c-0.1,0.09-0.2,0.17-0.3,0.26c-0.1,0.09-0.2,0.17-0.3,0.26c-0.1,0.09-0.2,0.18-0.3,0.27
		c-0.1,0.09-0.2,0.18-0.29,0.27s-0.19,0.18-0.29,0.27c-0.1,0.09-0.19,0.19-0.28,0.28c-0.09,0.09-0.19,0.19-0.28,0.28
		c-0.09,0.1-0.18,0.19-0.27,0.29c-0.09,0.1-0.18,0.19-0.27,0.29c-3.91,4.32-5.94,9.68-6.04,15.92
		c-1.21,76.82-0.12,156.19,0.94,232.95c0.52,38,1.06,77.28,1.31,115.56c-1.16-0.72-2.86-1.88-4.13-2.74l-0.03-0.02
		c-0.56-0.38-1.05-0.71-1.51-1.02l-0.16-0.09c-0.4-0.19-0.77-0.35-1.12-0.49c-0.29-0.12-0.59-0.24-0.88-0.34L39.07,73.58l0-0.27
		c0-11.6,5.15-21.07,14.89-27.39c8.19-5.31,19.33-8.28,31.37-8.36l0.47,0l0.47,0c12.04,0.08,23.18,3.05,31.37,8.36
		c9.74,6.32,14.89,15.79,14.89,27.39l0,0.11l-2.22,343.23C130.01,416.76,129.72,416.87,129.43,417z M151.84,408.97
		c-2.07,1.23-4.36,2.36-6.81,3.36c-2.45,1-5.11,1.87-7.91,2.61c-0.65,0.17-1.34,0.34-2.07,0.51c-0.76,0.18-1.47,0.34-2.14,0.47
		c-0.41,0.08-0.8,0.18-1.18,0.29l-0.04,0c-0.04,0.01-0.08,0.02-0.11,0.03l2.21-342.66l0-0.27c0-12.05-5.35-21.89-15.47-28.46
		c-8.39-5.44-19.77-8.48-32.06-8.56l-0.47,0l-0.48,0c-12.28,0.08-23.66,3.12-32.05,8.56C43.15,51.42,37.8,61.26,37.8,73.32
		l2.22,342.93c-0.04-0.01-0.08-0.02-0.11-0.03l-0.02,0c-0.4-0.11-0.8-0.21-1.2-0.29c-0.66-0.14-1.38-0.29-2.13-0.47
		c-0.73-0.17-1.43-0.35-2.07-0.51c-2.79-0.74-5.45-1.61-7.91-2.61c-2.45-1-4.74-2.12-6.81-3.36c-4.36-2.59-7.99-5.78-10.8-9.48
		c-2.81-3.69-4.88-8.01-6.16-12.79l-0.05-0.19c-0.07-0.27-0.13-0.46-0.13-0.7l0-333.2c0-15.19,7.22-27.77,20.88-36.38
		C37.55,7.36,58.55,2.59,84.23,2.41l1.57,0l1.57,0c25.68,0.18,46.68,4.95,60.72,13.81c13.66,8.61,20.88,21.19,20.88,36.38v333.2
		c0,0.23-0.05,0.43-0.13,0.7l-0.05,0.18c-1.28,4.81-3.35,9.12-6.16,12.81C159.83,403.18,156.2,406.37,151.84,408.97z M18.53,411.03
		c2.2,1.31,4.6,2.5,7.13,3.52c2.04,0.83,4.22,1.58,6.5,2.23c-1.46,1.81-2.69,4.81-3.65,8.93c-1.27,5.45-2.13,13.09-2.58,22.74
		c-0.01,1.57,0.65,2.46,2.13,2.89c1.21,0.35,2.97,0.34,5.21,0.33l104.89,0l0.1,0c2.25,0.01,4.03,0.02,5.25-0.33
		c1.48-0.43,2.14-1.32,2.13-2.91c-0.44-9.62-1.31-17.26-2.58-22.71c-0.96-4.12-2.18-7.12-3.65-8.93c2.28-0.66,4.46-1.41,6.5-2.24
		c2.53-1.03,4.93-2.21,7.13-3.52l0.17-0.1c3.05,2.08,5.91,6.39,8.49,12.8c2.92,7.25,5.56,17.38,7.83,30.1
		c0.05,0.28,0.11,0.56,0.16,0.84c0.05,0.27,0.09,0.54,0.13,0.79l0.07,0.5c0.02,0.15,0.03,0.35,0.05,0.54
		c0.02,0.29,0.05,0.62,0.1,0.96l0.03,0.76l-0.05,1.21l-0.35,1.62l-0.61,1.2c-0.8,1.14-2.15,2.03-4.27,2.8
		c-2.36,0.86-12.92,0.79-20.62,0.75h-0.05c-1.73-0.01-3.34-0.02-4.23-0.02H31.69c-0.89,0-2.5,0.01-4.23,0.02h-0.05
		c-7.7,0.04-18.26,0.11-20.62-0.75c-2.12-0.77-3.48-1.66-4.27-2.8l-0.18-0.28l-0.6-1.48l-0.23-2.1l0.03-0.92
		c0.09-0.56,0.15-1.05,0.2-1.52c0.08-0.67,0.16-1.37,0.31-2.14c2.27-12.71,4.9-22.84,7.83-30.09c2.58-6.41,5.44-10.71,8.49-12.8
		L18.53,411.03z M170.03,462.86L170.03,462.86L170.03,462.86L170.03,462.86z M1.44,462.66L1.44,462.66L1.44,462.66L1.44,462.66z
		 M1.35,462.52L1.35,462.52l-0.04,0.03c0-0.01,0-0.01,0-0.02L1.35,462.52z M1.39,462.59L1.39,462.59l-0.07,0.07
		c0-0.01,0-0.02,0-0.03L1.39,462.59z M1.45,462.94l0.11-0.08l0,0l0,0l-0.09,0.11c0.95,1.37,2.5,2.41,4.88,3.27
		c2.58,0.93,13.29,0.87,21.11,0.82l0.27,0c1.29-0.01,2.49-0.01,3.96-0.01h108.22c1.46,0,2.67,0.01,3.95,0.01l0.27,0
		c7.82,0.05,18.53,0.11,21.11-0.82c2.38-0.86,3.93-1.9,4.89-3.27l0.11-0.16l-0.12-0.08l0,0l0.14,0.05l0.01-0.02
		c-0.06,0.77-0.16,1.48-0.31,2.13c-0.42,1.86-1.18,3.18-2.27,3.92c-2.06,1.39-20.72,1.34-26.86,1.32l-108.51,0l-1.56,0
		c-6.13,0.02-24.8,0.08-26.85-1.32c-1.09-0.74-1.85-2.06-2.27-3.92c-0.15-0.65-0.25-1.36-0.31-2.13L1.45,462.94z M170.2,462.59
		l0.07,0.02c0,0.01,0,0.01,0,0.02L170.2,462.59z M170.25,462.52L170.25,462.52l0.04,0.01c0,0,0,0.01,0,0.01L170.25,462.52z"/>
</g>
<path d="M93.44,190.15H74.13c-3.84,0-6.96,3.12-6.96,6.97c0,3.84,3.12,6.96,6.96,6.96h19.31c3.84,0,6.96-3.12,6.96-6.97
	C100.4,193.27,97.28,190.15,93.44,190.15z M93.57,197.11c0,0.85-0.69,1.54-1.54,1.54s-1.54-0.69-1.54-1.54s0.69-1.54,1.54-1.54
	S93.57,196.26,93.57,197.11z M85.32,197.11c0,0.85-0.69,1.54-1.54,1.54s-1.54-0.69-1.54-1.54s0.69-1.54,1.54-1.54
	S85.32,196.26,85.32,197.11z M77.07,197.11c0,0.85-0.69,1.54-1.54,1.54S74,197.96,74,197.11s0.69-1.54,1.54-1.54
	S77.07,196.26,77.07,197.11z"/>
<g>
	<path class="st0" d="M101.25,78.78c0-4.5-1.82-8.57-4.77-11.51c-2.95-2.95-7.02-4.77-11.51-4.77c-4.5,0-8.57,1.82-11.51,4.77
		c-2.95,2.95-4.77,7.02-4.77,11.51c0,4.5,1.82,8.57,4.77,11.51c2.95,2.95,7.02,4.77,11.51,4.77s8.57-1.82,11.51-4.77
		C99.42,87.34,101.25,83.27,101.25,78.78"/>
</g>
<g>
	<path class="st0" d="M93.71,127.86c0-2.42-0.98-4.6-2.56-6.18c-1.58-1.58-3.77-2.56-6.18-2.56s-4.6,0.98-6.18,2.56
		c-1.58,1.58-2.56,3.77-2.56,6.18s0.98,4.6,2.56,6.19c1.58,1.58,3.77,2.56,6.18,2.56s4.6-0.98,6.18-2.56
		C92.73,132.46,93.71,130.28,93.71,127.86"/>
</g>
<g>
	<path class="st0" d="M93.71,162.61c0-2.42-0.98-4.6-2.56-6.18c-1.58-1.58-3.77-2.56-6.18-2.56s-4.6,0.98-6.18,2.56
		c-1.58,1.58-2.56,3.77-2.56,6.18c0,2.42,0.98,4.6,2.56,6.19c1.58,1.58,3.77,2.56,6.18,2.56s4.6-0.98,6.18-2.56
		C92.73,167.21,93.71,165.03,93.71,162.61"/>
</g>
</svg>
