<?xml version="1.0" encoding="utf-8"?>
<!-- Generator: Adobe Illustrator 20.0.0, SVG Export Plug-In . SVG Version: 6.00 Build 0)  -->
<svg version="1.1" id="Layer_1" xmlns="http://www.w3.org/2000/svg" xmlns:xlink="http://www.w3.org/1999/xlink" x="0px" y="0px"
	 viewBox="0 0 352.92 432.25" style="enable-background:new 0 0 352.92 432.25;" xml:space="preserve">
<style type="text/css">
	.st0{fill-rule:evenodd;clip-rule:evenodd;}
	.st1{fill:#1A1A18;}
</style>
<path d="M343,0h-86.34H96.26H9.92C4.45,0,0,4.45,0,9.92v412.41c0,5.47,4.45,9.92,9.92,9.92h86.34h160.4H343
	c5.47,0,9.92-4.45,9.92-9.92V9.92C352.92,4.45,348.47,0,343,0z M2.83,422.33V9.92c0-3.91,3.18-7.09,7.09-7.09h81.53
	c-0.44,0.79-0.7,1.71-0.7,2.68v421.23c0,0.97,0.26,1.88,0.7,2.68H9.92C6.01,429.42,2.83,426.24,2.83,422.33z M96.26,429.42
	c-1.48,0-2.68-1.2-2.68-2.68V5.51c0-1.48,1.2-2.68,2.68-2.68h160.4c1.48,0,2.68,1.2,2.68,2.68v421.23c0,1.48-1.2,2.68-2.68,2.68
	H96.26z M350.09,422.33c0,3.91-3.18,7.09-7.09,7.09h-81.53c0.44-0.79,0.7-1.71,0.7-2.68V5.51c0-0.97-0.25-1.88-0.7-2.68H343
	c3.91,0,7.09,3.18,7.09,7.09V422.33z"/>
<g>
	<path class="st0" d="M149.78,41.31c0.11-0.42,0.19-0.84,0.32-1.25c0.85-2.66,1.7-5.32,2.55-7.97c0.83-2.59,1.67-5.18,2.5-7.77
		c0.4-1.26,0.8-2.51,1.19-3.77c0.1-0.33,0.25-0.45,0.61-0.44c1.64,0.02,3.28,0.01,4.92,0.01c0.24,0,0.37,0.06,0.45,0.31
		c0.44,1.47,0.91,2.95,1.37,4.42c0.51,1.64,1.02,3.28,1.52,4.92c0.41,1.32,0.81,2.63,1.22,3.95c0.03,0.11,0.07,0.22,0.12,0.33
		c0.04,0.08,0.09,0.16,0.14,0.24c0.02-0.1,0.06-0.2,0.06-0.3c0-5.57,0-11.14-0.01-16.71c0-0.28,0.07-0.39,0.37-0.39
		c1.16,0.01,2.32,0.01,3.48,0c0.31,0,0.4,0.1,0.4,0.4c-0.01,6-0.01,12.01,0,18.01c0,0.33-0.11,0.42-0.42,0.42
		c-4.3-0.01-8.59-0.01-12.89,0c-0.3,0-0.38-0.04-0.27-0.37c0.32-0.95,0.6-1.92,0.87-2.88c0.1-0.34,0.24-0.49,0.63-0.47
		c0.7,0.04,1.4,0.01,2.11,0.01c0.25,0,0.3-0.07,0.22-0.31c-0.61-1.95-1.22-3.9-1.83-5.85c-0.02-0.07-0.08-0.13-0.11-0.19
		c-0.04,0.06-0.1,0.13-0.13,0.2c-0.31,0.95-0.61,1.89-0.91,2.84c-0.57,1.79-1.15,3.58-1.71,5.37c-0.56,1.77-1.12,3.54-1.68,5.31
		c-0.21,0.66-0.42,1.31-0.64,1.96C152.73,41.31,151.25,41.31,149.78,41.31"/>
</g>
<g>
	<path class="st0" d="M208.21,31.96c1.51,0,2.71-1.2,2.71-2.72c0-1.51-1.2-2.72-2.71-2.73c-1.49,0-2.73,1.22-2.74,2.71
		C205.45,30.73,206.68,31.96,208.21,31.96 M193.36,35.71c-1.02,0-2.04,0-3.05,0c-4.07,0.01-8.15,0.07-12.22,0
		c-2.57-0.04-4.46-1.36-5.54-3.67c-1.62-3.46,0.01-7.42,3.55-8.84c3.19-1.28,7.08,0.42,8.3,3.62c0.46,1.2,0.62,2.41,0.31,3.68
		c-0.06,0.24-0.15,0.34-0.4,0.34c-2-0.01-4,0-6-0.01c-0.87-0.01-1.49-0.66-1.51-1.52c-0.02-0.87,0.63-1.59,1.5-1.62
		c0.63-0.03,1.26,0,1.9-0.01c0.09,0,0.19-0.05,0.28-0.08c-0.05-0.08-0.09-0.16-0.15-0.23c-0.8-0.84-1.97-1.09-2.99-0.65
		c-1.07,0.47-1.75,1.58-1.67,2.76c0.09,1.39,1.07,2.37,2.49,2.46c0.7,0.05,1.4,0.04,2.1,0.04c1.87,0,3.75,0,5.62,0
		c0.42,0,0.44-0.01,0.27-0.4c-1.54-3.5,0.63-7.41,4.1-8.53c0.83-0.27,1.69-0.35,2.57-0.25c0.27,0.03,0.38,0.11,0.37,0.41
		c-0.02,0.99-0.02,1.99,0,2.98c0.01,0.3-0.1,0.39-0.38,0.37c-0.82-0.06-1.61,0.04-2.29,0.56c-0.92,0.7-1.33,1.93-0.97,3.01
		c0.37,1.1,1.35,1.82,2.52,1.83c0.71,0.01,1.43-0.02,2.14,0.01c0.37,0.01,0.45-0.12,0.45-0.47c-0.01-3.71-0.01-7.42-0.01-11.13
		c0-0.49,0-0.49,0.48-0.49c1.14,0,2.27,0.01,3.41-0.01c0.3,0,0.42,0.09,0.41,0.4c-0.02,0.69,0,1.38-0.01,2.07
		c-0.01,0.3,0.11,0.39,0.39,0.39c0.59-0.01,1.17,0.01,1.76-0.01c0.25-0.01,0.33,0.08,0.33,0.32c-0.01,1.08-0.01,2.15,0,3.23
		c0,0.25-0.11,0.32-0.34,0.32c-0.6-0.01-1.19,0-1.79-0.01c-0.24-0.01-0.34,0.08-0.34,0.32c0.01,1.38-0.01,2.76,0.01,4.14
		c0.01,0.75,0.21,0.9,0.97,0.9c0.67,0,1.33,0,2,0c0.39,0,0.41-0.02,0.27-0.4c-0.41-1.11-0.55-2.24-0.33-3.41
		c0.4-2.12,1.54-3.71,3.46-4.66c3.43-1.69,7.39-0.16,8.85,3.38c1.26,3.03-0.21,6.76-3.21,8.17c-0.94,0.44-1.91,0.66-2.95,0.66
		c-4.89-0.01-9.78-0.01-14.67-0.01C193.36,35.7,193.36,35.7,193.36,35.71z"/>
</g>
<g>
	<circle class="st1" cx="120.9" cy="348.97" r="4.25"/>
	<circle class="st1" cx="120.9" cy="333.09" r="4.25"/>
	<circle class="st1" cx="120.9" cy="317.22" r="4.25"/>
	<circle class="st1" cx="120.9" cy="301.35" r="4.25"/>
	<circle class="st1" cx="120.9" cy="285.47" r="4.25"/>
	<circle class="st1" cx="120.9" cy="269.6" r="4.25"/>
	<circle class="st1" cx="120.9" cy="253.72" r="4.25"/>
	<circle class="st1" cx="120.9" cy="237.85" r="4.25"/>
	<circle class="st1" cx="136.78" cy="348.97" r="4.25"/>
	<circle class="st1" cx="136.78" cy="333.09" r="4.25"/>
	<circle class="st1" cx="136.78" cy="317.22" r="4.25"/>
	<circle class="st1" cx="136.78" cy="301.35" r="4.25"/>
	<circle class="st1" cx="136.78" cy="285.47" r="4.25"/>
	<circle class="st1" cx="136.78" cy="269.6" r="4.25"/>
	<circle class="st1" cx="136.78" cy="253.72" r="4.25"/>
	<circle class="st1" cx="136.78" cy="237.85" r="4.25"/>
	<circle class="st1" cx="152.65" cy="348.97" r="4.25"/>
	<circle class="st1" cx="152.65" cy="333.09" r="4.25"/>
	<circle class="st1" cx="152.65" cy="317.22" r="4.25"/>
	<circle class="st1" cx="152.65" cy="301.35" r="4.25"/>
	<circle class="st1" cx="152.65" cy="285.47" r="4.25"/>
	<circle class="st1" cx="152.65" cy="269.6" r="4.25"/>
	<circle class="st1" cx="152.65" cy="253.72" r="4.25"/>
	<circle class="st1" cx="152.65" cy="237.85" r="4.25"/>
	<circle class="st1" cx="168.53" cy="348.97" r="4.25"/>
	<circle class="st1" cx="168.53" cy="333.09" r="4.25"/>
	<circle class="st1" cx="168.53" cy="317.22" r="4.25"/>
	<circle class="st1" cx="168.53" cy="301.35" r="4.25"/>
	<circle class="st1" cx="168.53" cy="285.47" r="4.25"/>
	<circle class="st1" cx="168.53" cy="269.6" r="4.25"/>
	<circle class="st1" cx="168.53" cy="253.72" r="4.25"/>
	<circle class="st1" cx="168.53" cy="237.85" r="4.25"/>
	<circle class="st1" cx="184.4" cy="348.97" r="4.25"/>
	<circle class="st1" cx="184.4" cy="333.09" r="4.25"/>
	<circle class="st1" cx="184.4" cy="317.22" r="4.25"/>
	<circle class="st1" cx="184.4" cy="301.35" r="4.25"/>
	<circle class="st1" cx="184.4" cy="285.47" r="4.25"/>
	<circle class="st1" cx="184.4" cy="269.6" r="4.25"/>
	<circle class="st1" cx="184.4" cy="253.72" r="4.25"/>
	<circle class="st1" cx="184.4" cy="237.85" r="4.25"/>
	<circle class="st1" cx="200.27" cy="348.97" r="4.25"/>
	<circle class="st1" cx="200.27" cy="333.09" r="4.25"/>
	<circle class="st1" cx="200.27" cy="317.22" r="4.25"/>
	<circle class="st1" cx="200.27" cy="301.35" r="4.25"/>
	<circle class="st1" cx="200.27" cy="285.47" r="4.25"/>
	<circle class="st1" cx="200.27" cy="269.6" r="4.25"/>
	<circle class="st1" cx="200.27" cy="253.72" r="4.25"/>
	<circle class="st1" cx="200.27" cy="237.85" r="4.25"/>
	<circle class="st1" cx="216.15" cy="348.97" r="4.25"/>
	<circle class="st1" cx="216.15" cy="333.09" r="4.25"/>
	<circle class="st1" cx="216.15" cy="317.22" r="4.25"/>
	<circle class="st1" cx="216.15" cy="301.35" r="4.25"/>
	<circle class="st1" cx="216.15" cy="285.47" r="4.25"/>
	<circle class="st1" cx="216.15" cy="269.6" r="4.25"/>
	<circle class="st1" cx="216.15" cy="253.72" r="4.25"/>
	<circle class="st1" cx="216.15" cy="237.85" r="4.25"/>
	<circle class="st1" cx="232.02" cy="348.97" r="4.25"/>
	<circle class="st1" cx="232.02" cy="333.09" r="4.25"/>
	<circle class="st1" cx="232.02" cy="317.22" r="4.25"/>
	<circle class="st1" cx="232.02" cy="301.35" r="4.25"/>
	<circle class="st1" cx="232.02" cy="285.47" r="4.25"/>
	<circle class="st1" cx="232.02" cy="269.6" r="4.25"/>
	<circle class="st1" cx="232.02" cy="253.72" r="4.25"/>
	<circle class="st1" cx="232.02" cy="237.85" r="4.25"/>
</g>
</svg>
